<?xml version="1.0" standalone="no"?>
<!DOCTYPE svg PUBLIC "-//W3C//DTD SVG 20010904//EN"
 "http://www.w3.org/TR/2001/REC-SVG-20010904/DTD/svg10.dtd">
<svg version="1.0" xmlns="http://www.w3.org/2000/svg"
 width="1052.000000pt" height="1052.000000pt" viewBox="0 0 1052.000000 1052.000000"
 preserveAspectRatio="xMidYMid meet">
<metadata>
Created by potrace 1.11, written by Peter Selinger 2001-2013
</metadata>
<g transform="translate(0.000000,1052.000000) scale(0.100000,-0.100000)"
fill="#000000" stroke="none">
<path d="M8530 10489 c-25 -16 -54 -35 -65 -40 -11 -5 -32 -17 -46 -27 -15 -9
-48 -30 -75 -47 -27 -16 -51 -32 -54 -35 -7 -7 -41 -28 -60 -37 -8 -4 -96 -58
-195 -121 -99 -63 -192 -122 -207 -131 -32 -19 -230 -145 -471 -298 -99 -62
-183 -113 -188 -113 -5 0 -9 -3 -9 -8 0 -4 -16 -16 -35 -26 -19 -11 -35 -23
-35 -28 0 -4 -5 -8 -11 -8 -6 0 -41 -20 -78 -44 -270 -177 -374 -243 -385
-244 -5 0 -12 -4 -15 -9 -3 -5 -27 -22 -53 -38 -27 -17 -48 -33 -48 -37 0 -5
-5 -8 -10 -8 -12 0 -94 -52 -98 -62 -2 -5 -8 -8 -12 -8 -5 0 -103 -61 -217
-135 -114 -75 -216 -139 -225 -142 -10 -3 -18 -8 -18 -12 0 -3 -13 -12 -28
-19 -16 -6 -38 -21 -50 -32 -12 -11 -24 -20 -27 -20 -6 0 -262 -163 -281 -178
-5 -5 -21 -15 -35 -22 -13 -7 -26 -16 -29 -19 -3 -4 -30 -22 -60 -40 -30 -19
-57 -36 -60 -40 -3 -3 -21 -15 -40 -25 -19 -11 -37 -22 -40 -25 -3 -4 -32 -24
-65 -46 -33 -22 -62 -42 -65 -45 -3 -3 -32 -23 -65 -45 -33 -21 -61 -42 -63
-47 -2 -4 -10 -8 -18 -8 -8 0 -14 -4 -14 -9 0 -5 -11 -8 -25 -5 -14 2 -35 6
-47 8 -13 2 -43 9 -66 16 -31 8 -53 8 -73 1 -22 -8 -32 -7 -43 5 -8 8 -19 14
-24 14 -6 0 -12 4 -14 10 -1 5 -21 12 -43 14 -56 7 -143 17 -185 21 -19 2 -35
4 -35 5 0 1 -18 3 -39 6 -22 2 -42 8 -45 13 -3 5 -31 11 -61 15 -30 3 -64 7
-74 9 -17 3 -88 64 -198 170 -16 15 -31 27 -34 27 -8 0 -75 50 -121 92 -43 39
-58 45 -67 29 -3 -5 -29 -9 -58 -10 -29 -1 -66 -2 -83 -4 -28 -2 -35 5 -89 88
-53 80 -60 96 -63 149 -2 33 -5 61 -8 64 -2 2 -24 4 -49 4 -47 -1 -59 9 -60
58 -1 17 -6 24 -17 22 -8 -1 -26 8 -38 19 -14 13 -62 31 -119 46 -54 13 -107
31 -120 39 -23 15 -87 11 -98 -7 -3 -5 -22 -18 -42 -28 -21 -11 -48 -30 -62
-43 -36 -36 -72 -55 -98 -53 -15 2 -39 -14 -72 -45 -47 -45 -48 -48 -35 -73 8
-15 9 -27 4 -27 -6 0 -6 -7 -1 -17 5 -10 12 -37 15 -61 4 -34 2 -44 -13 -52
-12 -6 -16 -17 -13 -30 3 -11 0 -27 -7 -35 -10 -12 -10 -15 1 -15 8 0 20 -12
27 -28 10 -23 10 -29 -3 -38 -18 -14 -20 -50 -2 -57 8 -4 9 -8 1 -14 -14 -10
-27 -43 -29 -68 0 -11 -4 -25 -7 -31 -4 -6 2 -27 12 -47 17 -31 17 -35 3 -30
-13 5 -15 2 -9 -20 3 -14 9 -70 13 -124 8 -124 10 -151 13 -160 2 -8 2 -11 -6
-48 -3 -11 -8 -46 -11 -77 -3 -32 -10 -58 -15 -58 -6 0 -7 -7 -4 -16 3 -8 -1
-29 -10 -46 -9 -18 -13 -40 -9 -55 4 -17 0 -32 -10 -43 -21 -23 -23 -110 -5
-165 8 -22 14 -51 15 -65 1 -14 5 -35 9 -47 5 -15 1 -27 -14 -41 -20 -18 -20
-24 -10 -63 12 -42 14 -53 24 -99 3 -11 7 -24 10 -29 3 -5 0 -14 -8 -20 -13
-11 -11 -56 4 -76 4 -5 11 -25 15 -43 5 -27 2 -37 -20 -61 -23 -23 -124 -236
-124 -259 1 -8 -12 -89 -18 -112 -4 -20 -13 -175 -17 -285 -2 -65 -9 -103 -24
-137 -11 -27 -18 -48 -15 -48 3 0 -1 -8 -9 -17 -19 -23 -30 -53 -19 -53 13 0
-6 -73 -27 -112 -11 -18 -17 -44 -15 -58 7 -50 26 -106 50 -154 14 -28 27 -71
28 -96 3 -45 -16 -108 -36 -121 -6 -3 -10 -9 -9 -13 1 -4 -10 -31 -25 -61 -18
-37 -27 -74 -29 -117 -3 -59 -6 -66 -49 -112 -54 -58 -71 -94 -73 -161 -2 -27
-3 -58 -3 -67 -1 -9 -16 -33 -35 -52 -25 -27 -36 -51 -45 -99 -7 -35 -39 -117
-73 -187 -33 -69 -66 -147 -73 -175 -28 -100 -67 -231 -87 -293 -22 -67 -19
-120 7 -142 21 -17 19 -69 -4 -121 -11 -24 -22 -64 -25 -89 -2 -25 -5 -45 -6
-45 -1 0 -4 -9 -6 -20 -11 -51 -9 -95 9 -150 34 -105 25 -151 -57 -274 -20
-31 -40 -78 -47 -110 -6 -31 -15 -65 -19 -76 -19 -46 -22 -64 -26 -157 -2 -66
-11 -116 -25 -155 -59 -160 -86 -253 -88 -298 -2 -54 -27 -145 -41 -145 -4 0
-11 -19 -15 -42 -4 -24 -9 -49 -11 -56 -1 -7 15 -25 36 -40 45 -31 49 -50 20
-109 -25 -52 -30 -78 -37 -188 -3 -49 -10 -96 -16 -103 -8 -10 -7 -16 3 -22 8
-5 17 -7 21 -5 3 3 37 -2 75 -10 38 -8 83 -16 99 -19 17 -2 50 -8 75 -12 25
-5 50 -9 55 -10 12 -1 91 -14 120 -19 11 -2 21 -4 23 -5 1 -2 10 -3 20 -4 9
-1 37 -6 62 -11 25 -4 52 -9 60 -10 16 -2 91 -15 125 -21 11 -2 34 -7 50 -10
17 -3 41 -7 55 -9 14 -1 36 -5 50 -8 14 -4 39 -8 55 -11 38 -5 116 -18 178
-30 12 -3 38 -7 57 -10 19 -3 44 -7 55 -9 49 -10 98 -18 128 -22 17 -3 43 -7
57 -10 14 -3 68 -12 120 -21 52 -9 104 -18 115 -20 11 -3 36 -7 55 -9 19 -3
46 -8 60 -11 13 -3 40 -7 59 -10 19 -2 48 -7 65 -10 84 -17 131 -9 178 32 13
10 75 61 138 113 63 52 117 97 120 100 3 3 30 26 60 51 86 70 90 74 111 92 11
9 39 31 61 50 23 18 52 42 64 53 13 11 57 47 98 80 41 33 80 72 87 88 6 15 14
27 18 27 4 0 12 12 18 27 7 16 17 35 23 43 5 8 37 62 70 120 33 58 65 112 70
120 5 8 26 42 45 75 20 33 40 67 45 75 47 76 90 154 90 161 0 6 21 31 48 57
47 47 63 54 181 77 14 2 70 14 125 26 56 11 110 23 121 25 38 7 110 22 135 28
14 3 39 8 55 11 24 4 203 41 290 61 11 2 34 7 50 10 17 3 35 7 40 8 12 3 82
17 108 22 10 2 26 5 35 8 20 6 65 15 110 22 18 3 60 13 95 22 59 16 63 19 87
67 25 51 42 89 78 180 11 28 42 102 68 165 26 63 47 121 47 128 0 6 4 12 9 12
4 0 8 5 8 11 0 11 19 57 48 119 24 50 52 71 202 153 30 17 67 38 82 49 14 10
29 18 33 18 4 0 33 15 64 34 31 18 88 51 126 71 109 59 139 82 123 92 -7 4
-29 28 -49 53 -20 25 -47 57 -60 71 -26 29 -52 60 -114 135 -22 26 -48 55 -57
63 -10 9 -18 18 -18 22 0 4 -13 21 -29 38 -17 18 -45 50 -63 73 -18 22 -40 48
-49 57 -8 9 -37 43 -64 76 -28 33 -62 72 -77 88 -16 15 -28 31 -28 35 0 4 -17
25 -38 47 -20 22 -71 81 -112 130 -41 50 -77 92 -80 95 -3 3 -18 21 -34 40
-16 19 -67 77 -115 129 -47 51 -95 103 -106 115 -66 73 -204 223 -246 267 -27
29 -49 56 -49 61 0 5 -4 6 -10 3 -5 -3 -10 -2 -10 4 0 5 -19 30 -42 54 -44 46
-76 81 -228 247 -47 52 -109 118 -137 148 -29 30 -53 56 -53 57 0 2 43 16 60
19 3 1 10 4 15 7 6 4 37 14 70 23 33 9 67 20 75 23 8 3 17 7 20 8 50 12 77 20
140 39 41 13 102 31 135 40 33 10 67 20 75 23 8 3 21 7 27 9 7 1 41 11 75 22
75 24 147 45 168 48 8 2 44 13 80 24 86 29 94 31 100 32 3 1 25 8 50 16 25 7
77 22 115 33 39 11 77 22 85 26 18 7 14 6 70 22 25 7 52 15 60 16 8 2 15 4 15
5 0 1 7 3 15 5 8 2 60 18 115 35 55 17 105 32 110 34 16 4 129 37 140 40 23 8
35 11 160 48 123 37 140 42 183 53 9 2 42 11 72 20 30 9 61 17 68 17 6 1 12 6
12 11 0 6 3 8 6 5 3 -4 20 -2 37 3 18 6 39 12 47 14 8 2 71 20 140 40 69 20
130 38 135 39 18 5 129 38 172 52 23 7 53 15 66 18 13 2 46 12 73 21 27 9 58
19 69 21 11 2 81 22 155 44 74 22 144 42 155 45 11 2 65 18 120 35 55 17 111
33 125 36 14 2 34 8 45 13 11 5 32 13 48 20 l27 11 0 482 c0 268 -4 498 -9
516 -6 20 -6 32 0 32 11 0 12 534 1 544 -6 7 -6 7 -24 84 -7 28 -16 52 -21 52
-4 0 -6 4 -3 8 3 5 -6 49 -20 98 -14 49 -27 96 -29 104 -2 8 -11 42 -20 75 -9
33 -21 76 -25 95 -5 19 -13 51 -18 70 -19 68 -54 195 -56 205 -2 6 -8 30 -15
55 -8 25 -15 52 -16 60 -2 8 -4 15 -5 15 -1 0 -3 8 -6 18 -6 24 -9 36 -23 87
-7 25 -15 55 -17 67 -2 12 -9 35 -15 50 -6 16 -10 29 -10 31 1 1 1 3 0 5 0 1
-2 9 -4 17 -27 105 -60 220 -64 220 -4 0 -26 -14 -51 -31z"/>
</g>
</svg>
